<svg width="24" height="24" viewBox="0 0 24 24" xmlns="http://www.w3.org/2000/svg" fill="currentColor">
  <path d="M12 0h6v2h-6ZM10 2h2v2h-2ZM18 2h2v2h-2ZM9 4h2v4h-2ZM15 4h2v2h-2ZM19 4h2v2h-2ZM20 6h3v2h-3ZM8 8h2v2h-2ZM19 8h3v1h-3ZM19 9h2v2h-2ZM6 10h2v2h-2ZM17 10h4v1h-4ZM11 11h2v3h-2ZM17 11h3v1h-3ZM5 12h2v2h-2ZM18 12h2v4h-2ZM10 13h3v1h-3ZM4 14h2v3h-2ZM9 14h3v1h-3ZM6 15h5v1h-5ZM17 15h3v1h-3ZM3 16h6v1h-6ZM16 16h3v1h-3ZM3 17h2v1h-2ZM15 17h3v1h-3ZM2 18h2v2h-2ZM15 18h2v1h-2ZM8 19h8v2h-8ZM1 20h2v4h-2ZM6 20h10v1h-10ZM5 21h3v1h-3ZM10 21h2v3h-2ZM14 21h2v3h-2ZM0 22h7v1h-7ZM9 22h3v2h-3ZM16 22h1v2h-1ZM0 23h6v1h-6Z"></path>
</svg>
