<svg width="24" height="24" viewBox="0 0 24 24" xmlns="http://www.w3.org/2000/svg" fill="currentColor">
  <path d="M18 0h6v2h-6ZM15 1h2v5h-2ZM12 2h2v4h-2ZM18 2h2v2h-2ZM22 2h2v4h-2ZM10 4h4v2h-4ZM17 4h1v2h-1ZM20 4h4v2h-4ZM7 6h2v8h-2ZM10 6h2v6h-2ZM14 6h2v2h-2ZM18 6h2v8h-2ZM20 7h3v2h-3ZM4 8h2v10h-2ZM16 8h7v1h-7ZM13 9h2v2h-2ZM16 9h4v1h-4ZM20 10h2v2h-2ZM6 12h4v2h-4ZM12 12h8v2h-8ZM6 14h2v2h-2ZM10 14h2v6h-2ZM12 15h6v2h-6ZM3 16h3v2h-3ZM8 16h10v1h-10ZM8 17h4v3h-4ZM2 18h2v4h-2ZM6 18h10v2h-10ZM4 20h4v1h-4ZM4 21h2v1h-2ZM0 22h2v2h-2Z"></path>
</svg>